<svg width="135" height="25" viewBox="0 0 135 25" fill="none" xmlns="http://www.w3.org/2000/svg">
<path d="M122.475 0C126.266 0 129.225 1.10059 131.353 3.30176C133.481 5.47847 134.545 8.53565 134.545 12.4733C134.545 16.411 133.481 19.4804 131.353 21.6815C129.225 23.8583 126.266 24.9466 122.475 24.9466C119.98 24.9466 117.816 24.4575 115.982 23.4792C114.172 22.5009 112.778 21.0701 111.799 19.1869C110.821 17.3037 110.332 15.0658 110.332 12.4733C110.332 9.88081 110.821 7.64296 111.799 5.75973C112.778 3.87651 114.172 2.44575 115.982 1.46745C117.816 0.489149 119.98 0 122.475 0ZM122.475 5.72305C120.983 5.72305 119.87 6.28557 119.137 7.41061C118.403 8.5112 118.036 10.1988 118.036 12.4733C118.036 14.7478 118.403 16.4476 119.137 17.5727C119.87 18.6733 120.983 19.2236 122.475 19.2236C123.967 19.2236 125.068 18.6733 125.777 17.5727C126.511 16.4721 126.878 14.7723 126.878 12.4733C126.878 10.1743 126.511 8.47451 125.777 7.37393C125.068 6.27334 123.967 5.72305 122.475 5.72305Z" fill="url(#paint0_radial_11523_2262)"/>
<path d="M107.869 24.5801H100.385V0.367188H107.869V24.5801Z" fill="url(#paint1_radial_11523_2262)"/>
<path d="M86.3054 0.367188C90.0718 0.367188 92.9456 1.41886 94.9266 3.5222C96.9321 5.60109 97.9349 8.5849 97.9349 12.4736C97.9349 16.3624 96.9321 19.3584 94.9266 21.4618C92.9456 23.5406 90.0718 24.5801 86.3054 24.5801H75.1895V0.367188H86.3054ZM85.3882 19.1138C87.1492 19.1138 88.3965 18.588 89.1302 17.5363C89.8639 16.4602 90.2308 14.7726 90.2308 12.4736C90.2308 10.1746 89.8639 8.49929 89.1302 7.44762C88.3965 6.37149 87.1492 5.83343 85.3882 5.83343H82.6734V19.1138H85.3882Z" fill="url(#paint2_radial_11523_2262)"/>
<path d="M65.1153 19.5541H57.7413L56.3473 24.5801H48.8633L57.0076 0.367188H65.9957L74.1768 24.5801H66.4727L65.1153 19.5541ZM63.8312 14.7115L62.5105 9.9056L61.4833 5.94349H61.41L60.4194 9.86891L59.062 14.7115H63.8312Z" fill="url(#paint3_radial_11523_2262)"/>
<path d="M37.0775 16.1789H34.0326V24.5801H26.6953V0.367188H39.0952C42.1769 0.367188 44.5248 1.03977 46.139 2.38493C47.7532 3.73009 48.5603 5.69892 48.5603 8.29141C48.5603 11.8133 47.0562 14.1734 44.0479 15.3718L49.9544 24.5801H41.7733L37.0775 16.1789ZM34.0326 11.0796H37.6645C38.8874 11.0796 39.7556 10.8839 40.2692 10.4926C40.7828 10.0768 41.0396 9.40422 41.0396 8.47484C41.0396 7.54545 40.7706 6.87287 40.2325 6.4571C39.7189 6.04132 38.8629 5.83343 37.6645 5.83343H34.0326V11.0796Z" fill="url(#paint4_radial_11523_2262)"/>
<path d="M12.3987 11.1893H23.6981V24.5798H18.6354L18.3786 21.7916C17.0823 23.8949 14.8445 24.9466 11.665 24.9466C9.51275 24.9466 7.58061 24.4697 5.86859 23.5159C4.18102 22.562 2.84809 21.1557 1.86979 19.2969C0.891493 17.4382 0.402344 15.1881 0.402344 12.5467C0.402344 9.92973 0.891493 7.67964 1.86979 5.79642C2.87255 3.91319 4.29108 2.48243 6.12539 1.50413C7.98416 0.501378 10.1853 0 12.7289 0C15.6149 0 17.9261 0.501378 19.6626 1.50413C21.3991 2.50689 22.7565 4.14554 23.7348 6.42008L16.7644 9.0248C16.2997 6.82363 15.0401 5.72305 12.9857 5.72305C9.73287 5.72305 8.10644 7.97313 8.10644 12.4733C8.10644 14.8701 8.52222 16.6188 9.35378 17.7194C10.1853 18.82 11.4693 19.3703 13.2058 19.3703C14.4776 19.3703 15.4926 19.1013 16.2508 18.5632C17.009 18.0251 17.3881 17.2303 17.3881 16.1786V15.9952H12.3987V11.1893Z" fill="url(#paint5_radial_11523_2262)"/>
<ellipse cx="122.5" cy="12.5801" rx="6.5" ry="7" fill="#050B00"/>
<path d="M125.778 13.7398C125.745 13.7737 125.617 13.9183 125.497 14.0373C124.798 14.7857 122.975 16.0107 122.02 16.3847C121.875 16.4447 121.509 16.5719 121.313 16.5801C121.125 16.5801 120.946 16.5381 120.776 16.4529C120.563 16.3339 120.392 16.1467 120.299 15.9256C120.238 15.7722 120.145 15.3131 120.145 15.3049C120.051 14.8027 120 13.9866 120 13.0847C120 12.2255 120.051 11.4427 120.128 10.9328C120.137 10.9247 120.23 10.3542 120.333 10.1587C120.52 9.80174 120.887 9.58008 121.279 9.58008H121.313C121.568 9.58883 122.105 9.81049 122.105 9.81866C123.008 10.1932 124.79 11.3581 125.506 12.1322C125.506 12.1322 125.708 12.3311 125.795 12.4553C125.932 12.6338 126 12.8549 126 13.076C126 13.3227 125.923 13.5526 125.778 13.7398Z" fill="#B1F163"/>
<defs>
<radialGradient id="paint0_radial_11523_2262" cx="0" cy="0" r="1" gradientUnits="userSpaceOnUse" gradientTransform="translate(14.7466 53.3366) scale(108.773 1566.55)">
<stop stop-color="#EBEDE9"/>
<stop offset="0.49" stop-color="#DCE6D2"/>
<stop offset="1" stop-color="#EBEDE9"/>
</radialGradient>
<radialGradient id="paint1_radial_11523_2262" cx="0" cy="0" r="1" gradientUnits="userSpaceOnUse" gradientTransform="translate(14.7466 53.3366) scale(108.773 1566.55)">
<stop stop-color="#EBEDE9"/>
<stop offset="0.49" stop-color="#DCE6D2"/>
<stop offset="1" stop-color="#EBEDE9"/>
</radialGradient>
<radialGradient id="paint2_radial_11523_2262" cx="0" cy="0" r="1" gradientUnits="userSpaceOnUse" gradientTransform="translate(14.7466 53.3366) scale(108.773 1566.55)">
<stop stop-color="#EBEDE9"/>
<stop offset="0.49" stop-color="#DCE6D2"/>
<stop offset="1" stop-color="#EBEDE9"/>
</radialGradient>
<radialGradient id="paint3_radial_11523_2262" cx="0" cy="0" r="1" gradientUnits="userSpaceOnUse" gradientTransform="translate(14.7466 53.3366) scale(108.773 1566.55)">
<stop stop-color="#EBEDE9"/>
<stop offset="0.49" stop-color="#DCE6D2"/>
<stop offset="1" stop-color="#EBEDE9"/>
</radialGradient>
<radialGradient id="paint4_radial_11523_2262" cx="0" cy="0" r="1" gradientUnits="userSpaceOnUse" gradientTransform="translate(14.7466 53.3366) scale(108.773 1566.55)">
<stop stop-color="#EBEDE9"/>
<stop offset="0.49" stop-color="#DCE6D2"/>
<stop offset="1" stop-color="#EBEDE9"/>
</radialGradient>
<radialGradient id="paint5_radial_11523_2262" cx="0" cy="0" r="1" gradientUnits="userSpaceOnUse" gradientTransform="translate(14.7466 53.3366) scale(108.773 1566.55)">
<stop stop-color="#EBEDE9"/>
<stop offset="0.49" stop-color="#DCE6D2"/>
<stop offset="1" stop-color="#EBEDE9"/>
</radialGradient>
</defs>
</svg>
