<svg width="134" height="25" viewBox="0 0 134 25" fill="none" xmlns="http://www.w3.org/2000/svg">
<path d="M24.516 11.3214V23.75H20.5678L20.4611 20.7768C18.9138 22.9196 16.1128 24.5 12.1646 24.5C5.282 24.5 0 19.7054 0 12.5C0 5.29464 5.01523 0.5 12.8049 0.5C18.1135 0.5 23.5289 3.07143 24.4093 9.125H17.0731C16.6196 8 15.1524 6.90179 12.9649 6.90179C9.657 6.90179 7.33612 9.09821 7.33612 12.5C7.33612 15.9018 9.71035 18.0982 12.7515 18.0982C13.8453 18.0982 16.6463 17.8036 17.3933 15.1786H12.4581V11.3214H24.516Z" fill="url(#paint0_radial_11199_824)"/>
<path d="M49.7926 23.75H42.5365L39.4954 17.9375H33.8933V23.75H26.5038V1.25H39.3353C45.551 1.25 49.0457 3.92857 49.0457 9.84822C49.0457 12.875 47.6852 15.0179 45.7911 16.3571L49.7926 23.75ZM33.8933 7.41072V12.3929H38.8285C40.6959 12.3929 41.6562 11.4821 41.6562 9.90179C41.6562 8.32143 40.6959 7.41072 38.8285 7.41072H33.8933Z" fill="url(#paint1_radial_11199_824)"/>
<path d="M69.2638 23.75L68.2767 20.7768H58.6731L57.686 23.75H50.0565L58.2996 1.25H68.6502L76.8933 23.75H69.2638ZM60.4871 15.2857H66.4627L64.1152 8.21429H62.8347L60.4871 15.2857Z" fill="url(#paint2_radial_11199_824)"/>
<path d="M77.9608 23.75V1.25H85.3503V23.75H77.9608Z" fill="url(#paint3_radial_11199_824)"/>
<path d="M87.2143 23.75V1.25H107.409V7.19643H94.6038V10.0625H106.928V14.9375H94.6038V17.8036H107.409V23.75H87.2143Z" fill="url(#paint4_radial_11199_824)"/>
<path d="M121.302 24.5C113.592 24.5 108.604 19.7054 108.604 12.5C108.604 5.29464 113.592 0.5 121.302 0.5C129.011 0.5 134 5.29464 134 12.5C134 19.7054 129.011 24.5 121.302 24.5ZM121.302 18.0982C124.236 18.0982 126.664 16.0625 126.664 12.5C126.664 8.9375 124.236 6.90179 121.302 6.90179C118.367 6.90179 115.94 8.9375 115.94 12.5C115.94 16.0625 118.367 18.0982 121.302 18.0982Z" fill="url(#paint5_radial_11199_824)"/>
<defs>
<radialGradient id="paint0_radial_11199_824" cx="0" cy="0" r="1" gradientUnits="userSpaceOnUse" gradientTransform="translate(15.4018 36.3609) scale(106.391 895.173)">
<stop stop-color="#BDFE6D"/>
<stop offset="0.502163" stop-color="#265201"/>
<stop offset="1" stop-color="#BDFE6D"/>
</radialGradient>
<radialGradient id="paint1_radial_11199_824" cx="0" cy="0" r="1" gradientUnits="userSpaceOnUse" gradientTransform="translate(15.4018 36.3609) scale(106.391 895.173)">
<stop stop-color="#BDFE6D"/>
<stop offset="0.502163" stop-color="#265201"/>
<stop offset="1" stop-color="#BDFE6D"/>
</radialGradient>
<radialGradient id="paint2_radial_11199_824" cx="0" cy="0" r="1" gradientUnits="userSpaceOnUse" gradientTransform="translate(15.4018 36.3609) scale(106.391 895.173)">
<stop stop-color="#BDFE6D"/>
<stop offset="0.502163" stop-color="#265201"/>
<stop offset="1" stop-color="#BDFE6D"/>
</radialGradient>
<radialGradient id="paint3_radial_11199_824" cx="0" cy="0" r="1" gradientUnits="userSpaceOnUse" gradientTransform="translate(15.4018 36.3609) scale(106.391 895.173)">
<stop stop-color="#BDFE6D"/>
<stop offset="0.502163" stop-color="#265201"/>
<stop offset="1" stop-color="#BDFE6D"/>
</radialGradient>
<radialGradient id="paint4_radial_11199_824" cx="0" cy="0" r="1" gradientUnits="userSpaceOnUse" gradientTransform="translate(15.4018 36.3609) scale(106.391 895.173)">
<stop stop-color="#BDFE6D"/>
<stop offset="0.502163" stop-color="#265201"/>
<stop offset="1" stop-color="#BDFE6D"/>
</radialGradient>
<radialGradient id="paint5_radial_11199_824" cx="0" cy="0" r="1" gradientUnits="userSpaceOnUse" gradientTransform="translate(15.4018 36.3609) scale(106.391 895.173)">
<stop stop-color="#BDFE6D"/>
<stop offset="0.502163" stop-color="#265201"/>
<stop offset="1" stop-color="#BDFE6D"/>
</radialGradient>
</defs>
</svg>
